<svg width="137" height="41" viewBox="0 0 137 41" fill="none" xmlns="http://www.w3.org/2000/svg">
<rect width="137" height="41" rx="4" fill="#4E97C2"/>
<rect x="11" y="9" width="24" height="24" rx="5" fill="white"/>
<rect x="14.75" y="22" width="16.5" height="6" rx="2" fill="#4E97C2"/>
<rect x="14.75" y="15.25" width="16.7143" height="5.57143" rx="2" fill="#4E97C2"/>
<path d="M47.4453 27V12.7812H52.3184C53.9264 12.7812 55.1504 13.1035 55.9902 13.748C56.8301 14.3926 57.25 15.3529 57.25 16.6289C57.25 17.2799 57.0742 17.8659 56.7227 18.3867C56.3711 18.9076 55.8568 19.3112 55.1797 19.5977C55.9479 19.806 56.5404 20.1999 56.957 20.7793C57.3802 21.3522 57.5918 22.0423 57.5918 22.8496C57.5918 24.1842 57.1621 25.2096 56.3027 25.9258C55.4499 26.6419 54.2259 27 52.6309 27H47.4453ZM49.916 20.584V25.0273H52.6602C53.4349 25.0273 54.0404 24.8353 54.4766 24.4512C54.9128 24.0671 55.1309 23.5332 55.1309 22.8496C55.1309 21.3717 54.3757 20.6165 52.8652 20.584H49.916ZM49.916 18.7676H52.3379C53.1061 18.7676 53.7051 18.5951 54.1348 18.25C54.571 17.8984 54.7891 17.4036 54.7891 16.7656C54.7891 16.0625 54.5872 15.5547 54.1836 15.2422C53.7865 14.9297 53.1647 14.7734 52.3184 14.7734H49.916V18.7676ZM59.3887 21.6191C59.3887 20.584 59.5938 19.653 60.0039 18.8262C60.4141 17.9928 60.9902 17.3548 61.7324 16.9121C62.4746 16.4629 63.3275 16.2383 64.291 16.2383C65.7168 16.2383 66.8724 16.6973 67.7578 17.6152C68.6497 18.5332 69.1315 19.7507 69.2031 21.2676L69.2129 21.8242C69.2129 22.8659 69.0111 23.7969 68.6074 24.6172C68.2103 25.4375 67.6374 26.0723 66.8887 26.5215C66.1465 26.9707 65.2871 27.1953 64.3105 27.1953C62.8197 27.1953 61.625 26.7005 60.7266 25.7109C59.8346 24.7148 59.3887 23.39 59.3887 21.7363V21.6191ZM61.7617 21.8242C61.7617 22.9115 61.9863 23.7643 62.4355 24.3828C62.8848 24.9948 63.5098 25.3008 64.3105 25.3008C65.1113 25.3008 65.7331 24.9883 66.1758 24.3633C66.625 23.7383 66.8496 22.8236 66.8496 21.6191C66.8496 20.5514 66.6185 19.7051 66.1562 19.0801C65.7005 18.4551 65.0788 18.1426 64.291 18.1426C63.5163 18.1426 62.901 18.4518 62.4453 19.0703C61.9896 19.6823 61.7617 20.6003 61.7617 21.8242ZM77.5332 27C77.429 26.7982 77.3379 26.4694 77.2598 26.0137C76.5046 26.8014 75.5801 27.1953 74.4863 27.1953C73.4251 27.1953 72.5592 26.8926 71.8887 26.2871C71.2181 25.6816 70.8828 24.9329 70.8828 24.041C70.8828 22.9147 71.2995 22.0521 72.1328 21.4531C72.9727 20.8477 74.1706 20.5449 75.7266 20.5449H77.1816V19.8516C77.1816 19.3047 77.0286 18.8685 76.7227 18.543C76.4167 18.2109 75.9512 18.0449 75.3262 18.0449C74.7858 18.0449 74.3431 18.1816 73.998 18.4551C73.653 18.722 73.4805 19.0638 73.4805 19.4805H71.1074C71.1074 18.901 71.2995 18.3607 71.6836 17.8594C72.0677 17.3516 72.5885 16.9544 73.2461 16.668C73.9102 16.3815 74.6491 16.2383 75.4629 16.2383C76.6999 16.2383 77.6862 16.5508 78.4219 17.1758C79.1576 17.7943 79.5352 18.6667 79.5547 19.793V24.5586C79.5547 25.5091 79.6882 26.2676 79.9551 26.834V27H77.5332ZM74.9258 25.291C75.3945 25.291 75.834 25.1771 76.2441 24.9492C76.6608 24.7214 76.9733 24.4154 77.1816 24.0312V22.0391H75.9023C75.0234 22.0391 74.3626 22.1921 73.9199 22.498C73.4772 22.804 73.2559 23.237 73.2559 23.7969C73.2559 24.2526 73.4056 24.6172 73.7051 24.8906C74.0111 25.1576 74.418 25.291 74.9258 25.291ZM87.5723 18.6016C87.2598 18.5495 86.9375 18.5234 86.6055 18.5234C85.5182 18.5234 84.7858 18.9401 84.4082 19.7734V27H82.0352V16.4336H84.3008L84.3594 17.6152C84.9323 16.6973 85.7266 16.2383 86.7422 16.2383C87.0807 16.2383 87.3607 16.2839 87.582 16.375L87.5723 18.6016ZM88.4316 21.6387C88.4316 20.0111 88.8092 18.7057 89.5645 17.7227C90.3197 16.7331 91.332 16.2383 92.6016 16.2383C93.7214 16.2383 94.6263 16.6289 95.3164 17.4102V12H97.6895V27H95.541L95.4238 25.9062C94.7142 26.7656 93.7669 27.1953 92.582 27.1953C91.3451 27.1953 90.3424 26.6973 89.5742 25.7012C88.8125 24.7051 88.4316 23.3509 88.4316 21.6387ZM90.8047 21.8438C90.8047 22.918 91.0098 23.7578 91.4199 24.3633C91.8366 24.9622 92.4258 25.2617 93.1875 25.2617C94.1576 25.2617 94.8672 24.8288 95.3164 23.9629V19.4512C94.8802 18.6048 94.1771 18.1816 93.207 18.1816C92.4388 18.1816 91.8464 18.4876 91.4297 19.0996C91.013 19.7051 90.8047 20.6198 90.8047 21.8438ZM106.088 24.1289C106.088 23.7057 105.912 23.3835 105.561 23.1621C105.215 22.9408 104.639 22.7454 103.832 22.5762C103.025 22.4069 102.351 22.1921 101.811 21.9316C100.626 21.3587 100.033 20.5286 100.033 19.4414C100.033 18.5299 100.417 17.7682 101.186 17.1562C101.954 16.5443 102.93 16.2383 104.115 16.2383C105.378 16.2383 106.397 16.5508 107.172 17.1758C107.953 17.8008 108.344 18.6113 108.344 19.6074H105.971C105.971 19.1517 105.801 18.7741 105.463 18.4746C105.124 18.1686 104.675 18.0156 104.115 18.0156C103.594 18.0156 103.168 18.1361 102.836 18.377C102.51 18.6178 102.348 18.9401 102.348 19.3438C102.348 19.7083 102.501 19.9915 102.807 20.1934C103.113 20.3952 103.731 20.6003 104.662 20.8086C105.593 21.0104 106.322 21.2546 106.85 21.541C107.383 21.821 107.777 22.1595 108.031 22.5566C108.292 22.9538 108.422 23.4355 108.422 24.002C108.422 24.9525 108.028 25.724 107.24 26.3164C106.452 26.9023 105.421 27.1953 104.145 27.1953C103.279 27.1953 102.507 27.0391 101.83 26.7266C101.153 26.4141 100.626 25.9844 100.248 25.4375C99.8704 24.8906 99.6816 24.3014 99.6816 23.6699H101.986C102.019 24.2298 102.23 24.6628 102.621 24.9688C103.012 25.2682 103.529 25.418 104.174 25.418C104.799 25.418 105.274 25.3008 105.6 25.0664C105.925 24.8255 106.088 24.513 106.088 24.1289Z" fill="white"/>
</svg>
