<svg width="169" height="45" viewBox="0 0 169 45" fill="none" xmlns="http://www.w3.org/2000/svg">
<g clip-path="url(#clip0_1_5)">
<rect y="6.5" width="32" height="32" rx="5" fill="#80B4D3"/>
<rect x="5" y="26.5" width="22" height="8" rx="2" fill="#026AA7"/>
<rect x="5" y="17.5" width="22.2857" height="7.42857" rx="2" fill="#026AA7"/>
<path d="M50.4463 23.3662L46.7354 26.7617L45.3066 35H40.7236L45.418 7.98438H50.001L47.8301 20.3975L50.6689 17.4473L59.9834 7.98438H65.8467L53.8232 20.1748L61.4121 35H56.291L50.4463 23.3662ZM75.6436 35C75.4951 34.5052 75.4333 33.8805 75.458 33.126C73.8005 34.6722 72.013 35.4206 70.0957 35.3711C68.3516 35.3464 66.9043 34.7897 65.7539 33.7012C64.6159 32.6003 64.084 31.2087 64.1582 29.5264C64.2572 27.4111 65.1725 25.7474 66.9043 24.5352C68.6361 23.3229 70.9616 22.7168 73.8809 22.7168L76.7383 22.7539L76.998 21.3809C77.0723 20.8984 77.0723 20.4469 76.998 20.0264C76.7507 18.6904 75.8662 18.0039 74.3447 17.9668C73.4046 17.9421 72.5758 18.1833 71.8584 18.6904C71.1533 19.1852 70.7204 19.8532 70.5596 20.6943L66.1621 20.7314C66.2487 19.4945 66.6878 18.4121 67.4795 17.4844C68.2712 16.5443 69.3226 15.8145 70.6338 15.2949C71.945 14.7754 73.3304 14.528 74.79 14.5527C76.9795 14.6022 78.6865 15.264 79.9111 16.5381C81.1357 17.7998 81.6429 19.4388 81.4326 21.4551L79.8926 30.8623L79.7441 32.5322C79.707 33.262 79.7998 33.9733 80.0225 34.666L80.0039 35H75.6436ZM71.1162 31.7715C72.0439 31.7962 72.9036 31.5859 73.6953 31.1406C74.487 30.6829 75.1611 30.0954 75.7178 29.3779L76.4043 25.5742L74.3076 25.5557C72.6501 25.5557 71.3265 25.8711 70.3369 26.502C69.3473 27.1204 68.7845 27.974 68.6484 29.0625C68.5495 29.8913 68.7288 30.5469 69.1865 31.0293C69.6566 31.4993 70.2998 31.7467 71.1162 31.7715ZM91.415 14.9053L90.9697 17.2617C92.6891 15.4062 94.6745 14.5033 96.9258 14.5527C98.806 14.5898 100.198 15.264 101.101 16.5752C102.004 17.874 102.338 19.6924 102.103 22.0303L99.9316 35H95.5342L97.7236 21.9746C97.7855 21.4427 97.7917 20.9479 97.7422 20.4902C97.5814 19.0182 96.7031 18.2637 95.1074 18.2266C93.4375 18.2018 91.9717 19.0244 90.71 20.6943L88.2051 35H83.8076L87.2773 14.9238L91.415 14.9053ZM104.997 35L109.691 7.98438L117.985 8.00293C120.905 8.0153 123.094 8.65234 124.554 9.91406C126.026 11.1634 126.675 12.9014 126.502 15.1279C126.279 17.7503 124.677 19.7233 121.696 21.0469C122.81 21.4427 123.669 22.1663 124.275 23.2178C124.882 24.2692 125.141 25.5247 125.055 26.9844C124.882 29.4583 123.886 31.4128 122.067 32.8477C120.261 34.2826 117.874 35 114.905 35H104.997ZM111.695 22.8096L110.229 31.252L115.035 31.2705C116.482 31.2705 117.713 30.887 118.728 30.1201C119.742 29.3532 120.342 28.3018 120.527 26.9658C120.701 25.6917 120.509 24.696 119.952 23.9785C119.396 23.2611 118.474 22.8776 117.188 22.8281L111.695 22.8096ZM112.289 19.3584L116.501 19.377C118.01 19.377 119.241 19.0182 120.193 18.3008C121.146 17.5833 121.709 16.6123 121.882 15.3877C122.191 13.0745 121.022 11.8747 118.375 11.7881L113.606 11.7695L112.289 19.3584ZM139.954 35C139.806 34.5052 139.744 33.8805 139.769 33.126C138.111 34.6722 136.324 35.4206 134.406 35.3711C132.662 35.3464 131.215 34.7897 130.064 33.7012C128.926 32.6003 128.395 31.2087 128.469 29.5264C128.568 27.4111 129.483 25.7474 131.215 24.5352C132.947 23.3229 135.272 22.7168 138.191 22.7168L141.049 22.7539L141.309 21.3809C141.383 20.8984 141.383 20.4469 141.309 20.0264C141.061 18.6904 140.177 18.0039 138.655 17.9668C137.715 17.9421 136.886 18.1833 136.169 18.6904C135.464 19.1852 135.031 19.8532 134.87 20.6943L130.473 20.7314C130.559 19.4945 130.998 18.4121 131.79 17.4844C132.582 16.5443 133.633 15.8145 134.944 15.2949C136.256 14.7754 137.641 14.528 139.101 14.5527C141.29 14.6022 142.997 15.264 144.222 16.5381C145.446 17.7998 145.953 19.4388 145.743 21.4551L144.203 30.8623L144.055 32.5322C144.018 33.262 144.11 33.9733 144.333 34.666L144.314 35H139.954ZM135.427 31.7715C136.354 31.7962 137.214 31.5859 138.006 31.1406C138.798 30.6829 139.472 30.0954 140.028 29.3779L140.715 25.5742L138.618 25.5557C136.961 25.5557 135.637 25.8711 134.647 26.502C133.658 27.1204 133.095 27.974 132.959 29.0625C132.86 29.8913 133.039 30.5469 133.497 31.0293C133.967 31.4993 134.61 31.7467 135.427 31.7715ZM155.726 14.9053L155.28 17.2617C157 15.4062 158.985 14.5033 161.236 14.5527C163.117 14.5898 164.508 15.264 165.411 16.5752C166.314 17.874 166.648 19.6924 166.413 22.0303L164.242 35H159.845L162.034 21.9746C162.096 21.4427 162.102 20.9479 162.053 20.4902C161.892 19.0182 161.014 18.2637 159.418 18.2266C157.748 18.2018 156.282 19.0244 155.021 20.6943L152.516 35H148.118L151.588 14.9238L155.726 14.9053Z" fill="#80B4D3"/>
</g>
<defs>
<clipPath id="clip0_1_5">
<rect width="169" height="45" fill="white"/>
</clipPath>
</defs>
</svg>
