<svg width="41" height="41" viewBox="0 0 41 41" fill="none" xmlns="http://www.w3.org/2000/svg">
<rect width="41" height="41" rx="4" fill="#4E97C2"/>
<path fill-rule="evenodd" clip-rule="evenodd" d="M28.7538 20.4676C28.9125 20.6497 29 20.8831 29 21.1247V28C29 29.1046 28.1045 30 27 30H22C21.4477 30 21 29.5523 21 29V24.5C21 24.2239 20.7761 24 20.5 24V24C20.2239 24 20 24.2239 20 24.5V29C20 29.5523 19.5523 30 19 30H14C12.8955 30 12 29.1046 12 28V21.1247C12 20.8831 12.0875 20.6497 12.2462 20.4676L19.7462 11.8646C20.1448 11.4075 20.8552 11.4075 21.2538 11.8646L28.7538 20.4676ZM14.4241 26.5264V21.5504C14.4241 21.3139 14.5078 21.0851 14.6605 20.9046L19.7365 14.9028C20.1359 14.4305 20.8641 14.4305 21.2635 14.9028L26.3395 20.9046C26.4922 21.0851 26.5759 21.3139 26.5759 21.5504V26.5264C26.5759 27.3402 25.9358 28 25.1462 28H24C23.4477 28 23 27.5523 23 27V23C23 22.4477 22.5523 22 22 22H19C18.4477 22 18 22.4477 18 23V27C18 27.5523 17.5523 28 17 28H15.8538C15.0642 28 14.4241 27.3402 14.4241 26.5264Z" fill="white"/>
</svg>
