<svg width="41" height="41" viewBox="0 0 41 41" fill="none" xmlns="http://www.w3.org/2000/svg">
<rect width="41" height="41" rx="4" fill="#4E97C2"/>
<path d="M21 12.25C16.168 12.25 12.25 16.168 12.25 21C12.25 25.832 16.168 29.75 21 29.75C25.832 29.75 29.75 25.832 29.75 21C29.75 16.168 25.832 12.25 21 12.25ZM21 28.2656C16.9883 28.2656 13.7344 25.0117 13.7344 21C13.7344 16.9883 16.9883 13.7344 21 13.7344C25.0117 13.7344 28.2656 16.9883 28.2656 21C28.2656 25.0117 25.0117 28.2656 21 28.2656Z" fill="white"/>
<path d="M20.0625 17.5625C20.0625 17.8111 20.1613 18.0496 20.3371 18.2254C20.5129 18.4012 20.7514 18.5 21 18.5C21.2486 18.5 21.4871 18.4012 21.6629 18.2254C21.8387 18.0496 21.9375 17.8111 21.9375 17.5625C21.9375 17.3139 21.8387 17.0754 21.6629 16.8996C21.4871 16.7238 21.2486 16.625 21 16.625C20.7514 16.625 20.5129 16.7238 20.3371 16.8996C20.1613 17.0754 20.0625 17.3139 20.0625 17.5625V17.5625ZM21.4688 19.75H20.5312C20.4453 19.75 20.375 19.8203 20.375 19.9062V25.2188C20.375 25.3047 20.4453 25.375 20.5312 25.375H21.4688C21.5547 25.375 21.625 25.3047 21.625 25.2188V19.9062C21.625 19.8203 21.5547 19.75 21.4688 19.75Z" fill="white"/>
</svg>
