<svg width="68" height="41" viewBox="0 0 68 41" fill="none" xmlns="http://www.w3.org/2000/svg">
<rect width="68" height="41" rx="3" fill="#4E97C2"/>
<path d="M13.0527 27H10.5918V12.7812H13.0527V27ZM18.0625 16.4336L18.1309 17.6543C18.9121 16.7103 19.9375 16.2383 21.207 16.2383C23.4076 16.2383 24.5273 17.498 24.5664 20.0176V27H22.1934V20.1543C22.1934 19.4837 22.0469 18.9889 21.7539 18.6699C21.4674 18.3444 20.9954 18.1816 20.3379 18.1816C19.3809 18.1816 18.668 18.6146 18.1992 19.4805V27H15.8262V16.4336H18.0625ZM30.7188 23.9922L32.9551 16.4336H35.4062L31.7441 27H29.6836L25.9922 16.4336H28.4531L30.7188 23.9922ZM39.4199 27H37.0469V16.4336H39.4199V27ZM36.9004 13.6895C36.9004 13.3249 37.0143 13.0221 37.2422 12.7812C37.4766 12.5404 37.8086 12.4199 38.2383 12.4199C38.668 12.4199 39 12.5404 39.2344 12.7812C39.4688 13.0221 39.5859 13.3249 39.5859 13.6895C39.5859 14.0475 39.4688 14.347 39.2344 14.5879C39 14.8223 38.668 14.9395 38.2383 14.9395C37.8086 14.9395 37.4766 14.8223 37.2422 14.5879C37.0143 14.347 36.9004 14.0475 36.9004 13.6895ZM44.9863 13.8652V16.4336H46.8516V18.1914H44.9863V24.0898C44.9863 24.4935 45.0645 24.7865 45.2207 24.9688C45.3835 25.1445 45.6699 25.2324 46.0801 25.2324C46.3535 25.2324 46.6302 25.1999 46.9102 25.1348V26.9707C46.3698 27.1204 45.849 27.1953 45.3477 27.1953C43.5247 27.1953 42.6133 26.1895 42.6133 24.1777V18.1914H40.875V16.4336H42.6133V13.8652H44.9863ZM53.3262 27.1953C51.8223 27.1953 50.6016 26.7233 49.6641 25.7793C48.7331 24.8288 48.2676 23.5658 48.2676 21.9902V21.6973C48.2676 20.6426 48.4694 19.7018 48.873 18.875C49.2832 18.0417 49.8561 17.3939 50.5918 16.9316C51.3275 16.4694 52.1478 16.2383 53.0527 16.2383C54.4915 16.2383 55.6016 16.6973 56.3828 17.6152C57.1706 18.5332 57.5645 19.832 57.5645 21.5117V22.4688H50.6602C50.7318 23.3411 51.0215 24.0312 51.5293 24.5391C52.0436 25.0469 52.6882 25.3008 53.4629 25.3008C54.5501 25.3008 55.4355 24.8613 56.1191 23.9824L57.3984 25.2031C56.9753 25.8346 56.4089 26.3262 55.6992 26.6777C54.9961 27.0228 54.2051 27.1953 53.3262 27.1953ZM53.043 18.1426C52.3919 18.1426 51.8646 18.3704 51.4609 18.8262C51.0638 19.2819 50.8099 19.9167 50.6992 20.7305H55.2207V20.5547C55.1686 19.7604 54.957 19.1615 54.5859 18.7578C54.2148 18.3477 53.7005 18.1426 53.043 18.1426Z" fill="white"/>
</svg>
