<svg width="41" height="41" viewBox="0 0 41 41" fill="none" xmlns="http://www.w3.org/2000/svg">
<rect width="41" height="41" rx="4" fill="#4E97C2"/>
<path d="M13 14C13 13.4477 13.4477 13 14 13H16.4118C16.964 13 17.4118 13.4477 17.4118 14V16.4118C17.4118 16.964 16.964 17.4118 16.4118 17.4118H14C13.4477 17.4118 13 16.964 13 16.4118V14Z" fill="white"/>
<path d="M13 19.2941C13 18.7418 13.4477 18.2941 14 18.2941H16.4118C16.964 18.2941 17.4118 18.7418 17.4118 19.2941V21.7059C17.4118 22.2582 16.964 22.7059 16.4118 22.7059H14C13.4477 22.7059 13 22.2582 13 21.7059V19.2941Z" fill="white"/>
<path d="M13 24.5882C13 24.0359 13.4477 23.5882 14 23.5882H16.4118C16.964 23.5882 17.4118 24.0359 17.4118 24.5882V27C17.4118 27.5523 16.964 28 16.4118 28H14C13.4477 28 13 27.5523 13 27V24.5882Z" fill="white"/>
<path d="M18.2942 14C18.2942 13.4477 18.7419 13 19.2942 13H21.706C22.2582 13 22.706 13.4477 22.706 14V16.4118C22.706 16.964 22.2582 17.4118 21.706 17.4118H19.2942C18.7419 17.4118 18.2942 16.964 18.2942 16.4118V14Z" fill="white"/>
<path d="M18.2942 19.2941C18.2942 18.7418 18.7419 18.2941 19.2942 18.2941H21.706C22.2582 18.2941 22.706 18.7418 22.706 19.2941V21.7059C22.706 22.2582 22.2582 22.7059 21.706 22.7059H19.2942C18.7419 22.7059 18.2942 22.2582 18.2942 21.7059V19.2941Z" fill="white"/>
<path d="M18.2942 24.5882C18.2942 24.0359 18.7419 23.5882 19.2942 23.5882H21.706C22.2582 23.5882 22.706 24.0359 22.706 24.5882V27C22.706 27.5523 22.2582 28 21.706 28H19.2942C18.7419 28 18.2942 27.5523 18.2942 27V24.5882Z" fill="white"/>
<path d="M23.5882 14C23.5882 13.4477 24.0359 13 24.5882 13H27C27.5523 13 28 13.4477 28 14V16.4118C28 16.964 27.5523 17.4118 27 17.4118H24.5882C24.0359 17.4118 23.5882 16.964 23.5882 16.4118V14Z" fill="white"/>
<path d="M23.5882 19.2941C23.5882 18.7418 24.0359 18.2941 24.5882 18.2941H27C27.5523 18.2941 28 18.7418 28 19.2941V21.7059C28 22.2582 27.5523 22.7059 27 22.7059H24.5882C24.0359 22.7059 23.5882 22.2582 23.5882 21.7059V19.2941Z" fill="white"/>
<path d="M23.5882 24.5882C23.5882 24.0359 24.0359 23.5882 24.5882 23.5882H27C27.5523 23.5882 28 24.0359 28 24.5882V27C28 27.5523 27.5523 28 27 28H24.5882C24.0359 28 23.5882 27.5523 23.5882 27V24.5882Z" fill="white"/>
</svg>
