<svg width="98" height="41" viewBox="0 0 98 41" fill="none" xmlns="http://www.w3.org/2000/svg">
<rect width="98" height="41" rx="3" fill="#4E97C2"/>
<path d="M12.916 21.7168V27H10.4453V12.7812H15.8848C17.4733 12.7812 18.7331 13.1947 19.6641 14.0215C20.6016 14.8483 21.0703 15.9421 21.0703 17.3027C21.0703 18.696 20.6113 19.7799 19.6934 20.5547C18.7819 21.3294 17.5026 21.7168 15.8555 21.7168H12.916ZM12.916 19.7344H15.8848C16.7637 19.7344 17.4342 19.5293 17.8965 19.1191C18.3587 18.7025 18.5898 18.1035 18.5898 17.3223C18.5898 16.554 18.3555 15.9421 17.8867 15.4863C17.418 15.0241 16.7734 14.7865 15.9531 14.7734H12.916V19.7344ZM27.5254 27.1953C26.0215 27.1953 24.8008 26.7233 23.8633 25.7793C22.9323 24.8288 22.4668 23.5658 22.4668 21.9902V21.6973C22.4668 20.6426 22.6686 19.7018 23.0723 18.875C23.4824 18.0417 24.0553 17.3939 24.791 16.9316C25.5267 16.4694 26.347 16.2383 27.252 16.2383C28.6908 16.2383 29.8008 16.6973 30.582 17.6152C31.3698 18.5332 31.7637 19.832 31.7637 21.5117V22.4688H24.8594C24.931 23.3411 25.2207 24.0312 25.7285 24.5391C26.2428 25.0469 26.8874 25.3008 27.6621 25.3008C28.7493 25.3008 29.6348 24.8613 30.3184 23.9824L31.5977 25.2031C31.1745 25.8346 30.6081 26.3262 29.8984 26.6777C29.1953 27.0228 28.4043 27.1953 27.5254 27.1953ZM27.2422 18.1426C26.5911 18.1426 26.0638 18.3704 25.6602 18.8262C25.263 19.2819 25.0091 19.9167 24.8984 20.7305H29.4199V20.5547C29.3678 19.7604 29.1562 19.1615 28.7852 18.7578C28.4141 18.3477 27.8997 18.1426 27.2422 18.1426ZM39.1465 18.6016C38.834 18.5495 38.5117 18.5234 38.1797 18.5234C37.0924 18.5234 36.36 18.9401 35.9824 19.7734V27H33.6094V16.4336H35.875L35.9336 17.6152C36.5065 16.6973 37.3008 16.2383 38.3164 16.2383C38.6549 16.2383 38.9349 16.2839 39.1562 16.375L39.1465 18.6016ZM46.5684 24.1289C46.5684 23.7057 46.3926 23.3835 46.041 23.1621C45.696 22.9408 45.1198 22.7454 44.3125 22.5762C43.5052 22.4069 42.8314 22.1921 42.291 21.9316C41.1061 21.3587 40.5137 20.5286 40.5137 19.4414C40.5137 18.5299 40.8978 17.7682 41.666 17.1562C42.4342 16.5443 43.4108 16.2383 44.5957 16.2383C45.8587 16.2383 46.8776 16.5508 47.6523 17.1758C48.4336 17.8008 48.8242 18.6113 48.8242 19.6074H46.4512C46.4512 19.1517 46.2819 18.7741 45.9434 18.4746C45.6048 18.1686 45.1556 18.0156 44.5957 18.0156C44.0749 18.0156 43.6484 18.1361 43.3164 18.377C42.9909 18.6178 42.8281 18.9401 42.8281 19.3438C42.8281 19.7083 42.9811 19.9915 43.2871 20.1934C43.5931 20.3952 44.2116 20.6003 45.1426 20.8086C46.0736 21.0104 46.8027 21.2546 47.3301 21.541C47.8639 21.821 48.2578 22.1595 48.5117 22.5566C48.7721 22.9538 48.9023 23.4355 48.9023 24.002C48.9023 24.9525 48.5085 25.724 47.7207 26.3164C46.9329 26.9023 45.901 27.1953 44.625 27.1953C43.7591 27.1953 42.9876 27.0391 42.3105 26.7266C41.6335 26.4141 41.1061 25.9844 40.7285 25.4375C40.3509 24.8906 40.1621 24.3014 40.1621 23.6699H42.4668C42.4993 24.2298 42.7109 24.6628 43.1016 24.9688C43.4922 25.2682 44.0098 25.418 44.6543 25.418C45.2793 25.418 45.7546 25.3008 46.0801 25.0664C46.4056 24.8255 46.5684 24.513 46.5684 24.1289ZM50.5332 21.6191C50.5332 20.584 50.7383 19.653 51.1484 18.8262C51.5586 17.9928 52.1348 17.3548 52.877 16.9121C53.6191 16.4629 54.472 16.2383 55.4355 16.2383C56.8613 16.2383 58.0169 16.6973 58.9023 17.6152C59.7943 18.5332 60.276 19.7507 60.3477 21.2676L60.3574 21.8242C60.3574 22.8659 60.1556 23.7969 59.752 24.6172C59.3548 25.4375 58.7819 26.0723 58.0332 26.5215C57.291 26.9707 56.4316 27.1953 55.4551 27.1953C53.9642 27.1953 52.7695 26.7005 51.8711 25.7109C50.9792 24.7148 50.5332 23.39 50.5332 21.7363V21.6191ZM52.9062 21.8242C52.9062 22.9115 53.1309 23.7643 53.5801 24.3828C54.0293 24.9948 54.6543 25.3008 55.4551 25.3008C56.2559 25.3008 56.8776 24.9883 57.3203 24.3633C57.7695 23.7383 57.9941 22.8236 57.9941 21.6191C57.9941 20.5514 57.763 19.7051 57.3008 19.0801C56.8451 18.4551 56.2233 18.1426 55.4355 18.1426C54.6608 18.1426 54.0456 18.4518 53.5898 19.0703C53.1341 19.6823 52.9062 20.6003 52.9062 21.8242ZM64.5664 16.4336L64.6348 17.6543C65.416 16.7103 66.4414 16.2383 67.7109 16.2383C69.9115 16.2383 71.0312 17.498 71.0703 20.0176V27H68.6973V20.1543C68.6973 19.4837 68.5508 18.9889 68.2578 18.6699C67.9714 18.3444 67.4993 18.1816 66.8418 18.1816C65.8848 18.1816 65.1719 18.6146 64.7031 19.4805V27H62.3301V16.4336H64.5664ZM79.8105 27C79.7064 26.7982 79.6152 26.4694 79.5371 26.0137C78.7819 26.8014 77.8574 27.1953 76.7637 27.1953C75.7025 27.1953 74.8366 26.8926 74.166 26.2871C73.4954 25.6816 73.1602 24.9329 73.1602 24.041C73.1602 22.9147 73.5768 22.0521 74.4102 21.4531C75.25 20.8477 76.4479 20.5449 78.0039 20.5449H79.459V19.8516C79.459 19.3047 79.306 18.8685 79 18.543C78.694 18.2109 78.2285 18.0449 77.6035 18.0449C77.0632 18.0449 76.6204 18.1816 76.2754 18.4551C75.9303 18.722 75.7578 19.0638 75.7578 19.4805H73.3848C73.3848 18.901 73.5768 18.3607 73.9609 17.8594C74.3451 17.3516 74.8659 16.9544 75.5234 16.668C76.1875 16.3815 76.9264 16.2383 77.7402 16.2383C78.9772 16.2383 79.9635 16.5508 80.6992 17.1758C81.4349 17.7943 81.8125 18.6667 81.832 19.793V24.5586C81.832 25.5091 81.9655 26.2676 82.2324 26.834V27H79.8105ZM77.2031 25.291C77.6719 25.291 78.1113 25.1771 78.5215 24.9492C78.9382 24.7214 79.2507 24.4154 79.459 24.0312V22.0391H78.1797C77.3008 22.0391 76.64 22.1921 76.1973 22.498C75.7546 22.804 75.5332 23.237 75.5332 23.7969C75.5332 24.2526 75.6829 24.6172 75.9824 24.8906C76.2884 25.1576 76.6953 25.291 77.2031 25.291ZM86.8418 27H84.4688V12H86.8418V27Z" fill="white"/>
</svg>
