<svg width="81" height="41" viewBox="0 0 81 41" fill="none" xmlns="http://www.w3.org/2000/svg">
<rect width="81" height="41" rx="3" fill="#4E97C2"/>
<path d="M12.916 21.7168V27H10.4453V12.7812H15.8848C17.4733 12.7812 18.7331 13.1947 19.6641 14.0215C20.6016 14.8483 21.0703 15.9421 21.0703 17.3027C21.0703 18.696 20.6113 19.7799 19.6934 20.5547C18.7819 21.3294 17.5026 21.7168 15.8555 21.7168H12.916ZM12.916 19.7344H15.8848C16.7637 19.7344 17.4342 19.5293 17.8965 19.1191C18.3587 18.7025 18.5898 18.1035 18.5898 17.3223C18.5898 16.554 18.3555 15.9421 17.8867 15.4863C17.418 15.0241 16.7734 14.7865 15.9531 14.7734H12.916V19.7344ZM28.541 18.6016C28.2285 18.5495 27.9062 18.5234 27.5742 18.5234C26.487 18.5234 25.7546 18.9401 25.377 19.7734V27H23.0039V16.4336H25.2695L25.3281 17.6152C25.901 16.6973 26.6953 16.2383 27.7109 16.2383C28.0495 16.2383 28.3294 16.2839 28.5508 16.375L28.541 18.6016ZM32.5645 27H30.1914V16.4336H32.5645V27ZM30.0449 13.6895C30.0449 13.3249 30.1589 13.0221 30.3867 12.7812C30.6211 12.5404 30.9531 12.4199 31.3828 12.4199C31.8125 12.4199 32.1445 12.5404 32.3789 12.7812C32.6133 13.0221 32.7305 13.3249 32.7305 13.6895C32.7305 14.0475 32.6133 14.347 32.3789 14.5879C32.1445 14.8223 31.8125 14.9395 31.3828 14.9395C30.9531 14.9395 30.6211 14.8223 30.3867 14.5879C30.1589 14.347 30.0449 14.0475 30.0449 13.6895ZM38.8828 23.9922L41.1191 16.4336H43.5703L39.9082 27H37.8477L34.1562 16.4336H36.6172L38.8828 23.9922ZM51.2168 27C51.1126 26.7982 51.0215 26.4694 50.9434 26.0137C50.1882 26.8014 49.2637 27.1953 48.1699 27.1953C47.1087 27.1953 46.2428 26.8926 45.5723 26.2871C44.9017 25.6816 44.5664 24.9329 44.5664 24.041C44.5664 22.9147 44.9831 22.0521 45.8164 21.4531C46.6562 20.8477 47.8542 20.5449 49.4102 20.5449H50.8652V19.8516C50.8652 19.3047 50.7122 18.8685 50.4062 18.543C50.1003 18.2109 49.6348 18.0449 49.0098 18.0449C48.4694 18.0449 48.0267 18.1816 47.6816 18.4551C47.3366 18.722 47.1641 19.0638 47.1641 19.4805H44.791C44.791 18.901 44.9831 18.3607 45.3672 17.8594C45.7513 17.3516 46.2721 16.9544 46.9297 16.668C47.5938 16.3815 48.3327 16.2383 49.1465 16.2383C50.3835 16.2383 51.3698 16.5508 52.1055 17.1758C52.8411 17.7943 53.2188 18.6667 53.2383 19.793V24.5586C53.2383 25.5091 53.3717 26.2676 53.6387 26.834V27H51.2168ZM48.6094 25.291C49.0781 25.291 49.5176 25.1771 49.9277 24.9492C50.3444 24.7214 50.6569 24.4154 50.8652 24.0312V22.0391H49.5859C48.707 22.0391 48.0462 22.1921 47.6035 22.498C47.1608 22.804 46.9395 23.237 46.9395 23.7969C46.9395 24.2526 47.0892 24.6172 47.3887 24.8906C47.6947 25.1576 48.1016 25.291 48.6094 25.291ZM58.6973 13.8652V16.4336H60.5625V18.1914H58.6973V24.0898C58.6973 24.4935 58.7754 24.7865 58.9316 24.9688C59.0944 25.1445 59.3809 25.2324 59.791 25.2324C60.0645 25.2324 60.3411 25.1999 60.6211 25.1348V26.9707C60.0807 27.1204 59.5599 27.1953 59.0586 27.1953C57.2357 27.1953 56.3242 26.1895 56.3242 24.1777V18.1914H54.5859V16.4336H56.3242V13.8652H58.6973ZM67.0371 27.1953C65.5332 27.1953 64.3125 26.7233 63.375 25.7793C62.444 24.8288 61.9785 23.5658 61.9785 21.9902V21.6973C61.9785 20.6426 62.1803 19.7018 62.584 18.875C62.9941 18.0417 63.5671 17.3939 64.3027 16.9316C65.0384 16.4694 65.8587 16.2383 66.7637 16.2383C68.2025 16.2383 69.3125 16.6973 70.0938 17.6152C70.8815 18.5332 71.2754 19.832 71.2754 21.5117V22.4688H64.3711C64.4427 23.3411 64.7324 24.0312 65.2402 24.5391C65.7546 25.0469 66.3991 25.3008 67.1738 25.3008C68.2611 25.3008 69.1465 24.8613 69.8301 23.9824L71.1094 25.2031C70.6862 25.8346 70.1198 26.3262 69.4102 26.6777C68.707 27.0228 67.916 27.1953 67.0371 27.1953ZM66.7539 18.1426C66.1029 18.1426 65.5755 18.3704 65.1719 18.8262C64.7747 19.2819 64.5208 19.9167 64.4102 20.7305H68.9316V20.5547C68.8796 19.7604 68.668 19.1615 68.2969 18.7578C67.9258 18.3477 67.4115 18.1426 66.7539 18.1426Z" fill="white"/>
</svg>
